<?xml version="1.0" encoding="UTF-8"?>
<svg width="22px" height="22px" viewBox="0 0 22 22" version="1.1" xmlns="http://www.w3.org/2000/svg" xmlns:xlink="http://www.w3.org/1999/xlink">
    <!-- Generator: Sketch 58 (84663) - https://sketch.com -->
    <title>ic_couponBlue</title>
    <desc>Created with Sketch.</desc>
    <g id="Element-Sheet" stroke="none" stroke-width="1" fill="none" fill-rule="evenodd">
        <g transform="translate(-1120.000000, -335.000000)" id="ic_couponBlue">
            <g transform="translate(1119.000000, 333.000000)">
                <rect id="bounds" x="0" y="0" width="24" height="24"></rect>
                <path d="M22.2819843,15.3999669 L23,15.3999669 L23,17.7901173 L22.2819843,17.7901173 L22.2819843,15.3999669 Z M23,5.84372831 L22.2819843,5.84372831 L22.2819843,8.23242439 L23,8.23242439 L23,5.84372831 Z M23,20.1788134 L22.2819843,20.1788134 L22.2819843,20.905966 L21.5639687,20.905966 L21.5639687,21.6331185 L23,21.6331185 L23,20.1788134 Z M23,10.6218476 L22.2819843,10.6218476 L22.2819843,13.0112709 L23,13.0112709 L23,10.6218476 Z M22.2819843,3.45430507 L23,3.45430507 L23,2 L21.5639687,2 L21.5639687,2.72715254 L22.2819843,2.72715254 L22.2819843,3.45430507 Z M16.8466058,21.6331185 L19.2052872,21.6331185 L19.2052872,20.905966 L16.8466058,20.905966 L16.8466058,21.6331185 Z M4.33159277,2.72715254 L5.04960843,2.72715254 L5.04960843,2 L3.61357711,2 L3.61357711,3.45430507 L4.33159277,3.45430507 L4.33159277,2.72715254 Z M19.2045692,2 L16.8458878,2 L16.8458878,2.72715254 L19.2045692,2.72715254 L19.2045692,2 L19.2045692,2 Z M4.33159277,5.84372831 L3.61357711,5.84372831 L3.61357711,8.23242439 L4.33159277,8.23242439 L4.33159277,5.84372831 Z M1.0000001,23.0350686 C0.999819062,22.62485 1.25726831,22.2599294 1.64052802,22.1271544 C2.02378773,21.9943795 2.44799779,22.1231487 2.69595309,22.4475293 C2.78427885,22.3598725 2.8541371,22.2549885 2.90130557,22.1392167 C3.08085308,21.7777432 3.28727919,21.4306181 3.51879904,21.1008428 C3.07865544,20.4464056 2.54732385,19.6865312 2.05763717,18.980466 C1.69940924,18.5796143 1.62709615,17.9946198 1.87669722,17.516708 L1.95208886,17.516708 C2.6413839,18.4663692 3.31631862,19.4305735 4.01925596,20.3678731 C4.72075726,19.4305735 5.39641,18.4663692 6.08570503,17.516708 L6.1575066,17.516708 C6.40773653,17.99439 6.33567909,18.5796388 5.97728467,18.980466 C5.48687997,19.6865312 4.9562664,20.4507685 4.51755883,21.1008428 C4.74873938,21.430703 4.95492078,21.7778202 5.13433428,22.1392167 C5.18288178,22.2544109 5.25284117,22.3590807 5.34040478,22.4475293 C5.59746958,22.1124385 6.04140454,21.9882446 6.43186305,22.1421865 C6.82232155,22.2961283 7.06648568,22.6916115 7.03216484,23.1145212 C6.997844,23.537431 6.69319678,23.8872352 6.28315934,23.9745497 C6.25211134,23.9849915 6.22045898,23.993491 6.18838127,24 L5.95000007,24 C5.69009631,23.952733 5.45843716,23.8051912 5.30378598,23.5884317 C5.20594977,23.4024144 5.12519274,23.2076889 5.06253271,23.0067096 C4.8800308,22.4459458 4.51170741,21.9663243 4.01997397,21.6491158 C3.52744474,21.9656126 3.15869186,22.4454628 2.97669721,23.0067096 C2.91299874,23.2073014 2.83227989,23.4019347 2.73544395,23.5884317 C2.58089758,23.8053044 2.34918893,23.9528776 2.08922986,24 L1.84582255,24 C1.81421704,23.993487 1.7830427,23.9849871 1.75248051,23.9745497 C1.31398931,23.8807524 1.00016393,23.4889375 1.0000001,23.0350686 L1.0000001,23.0350686 Z M5.5751959,23.0350686 C5.57490551,23.247545 5.70110484,23.4392495 5.89488542,23.5206967 C6.088666,23.6021438 6.31181624,23.5572729 6.46017203,23.4070292 C6.60852783,23.2567856 6.65283491,23.0307957 6.57241121,22.8345492 C6.4919875,22.6383028 6.30269177,22.5104975 6.09288519,22.5107916 C5.80697329,22.5107916 5.5751959,22.7455184 5.5751959,23.0350686 L5.5751959,23.0350686 Z M1.42865545,23.0350686 C1.42825917,23.32502 1.66003636,23.5603974 1.94634441,23.5607989 C2.23265246,23.5612004 2.46507243,23.3264739 2.46546907,23.0365226 C2.46586571,22.7465712 2.23408882,22.5111935 1.94778077,22.5107916 C1.81029056,22.5105986 1.67835591,22.5657264 1.581001,22.6640474 C1.48364609,22.7623685 1.42884574,22.8958288 1.42865545,23.0350686 L1.42865545,23.0350686 Z M4.33159277,15.3999669 L3.61357711,15.3999669 L3.61357711,17.7901173 L4.33159277,17.7901173 L4.33159277,15.3999669 Z M4.33159277,10.6218476 L3.61357711,10.6218476 L3.61357711,13.0112709 L4.33159277,13.0112709 L4.33159277,10.6218476 Z M7.4090079,21.6331185 L9.76840737,21.6331185 L9.76840737,20.905966 L7.4090079,20.905966 L7.4090079,21.6331185 Z M9.76840737,2 L7.4090079,2 L7.4090079,2.72715254 L9.76840737,2.72715254 L9.76840737,2 Z M12.9815275,15.8260783 L12.9815275,11.9721699 C12.1610517,11.8639177 11.3860512,11.5282311 10.7420366,11.0021484 C10.2434626,10.5097365 9.97955309,9.82300667 10.0182768,9.11882333 C10.0211507,8.39501624 10.300301,7.70037552 10.7973238,7.18023467 C11.3668083,6.58307423 12.1626852,6.26326899 12.9815275,6.30256156 L12.9815275,5.36162618 L13.64641,5.36162618 L13.64641,6.28801851 C14.4330387,6.29715997 15.190382,6.59151749 15.7810705,7.11769955 C16.2874528,7.62839212 16.5686487,8.32459425 16.5608355,9.04828954 L15.3402089,9.04828954 C15.317043,8.7208214 15.218697,8.40335441 15.0530026,8.12117005 C14.7477487,7.63838855 14.2143626,7.35366517 13.648564,7.37147579 L13.648564,10.8174517 C14.4188114,10.9977201 15.1596442,11.2886173 15.848564,11.6813089 C16.4787909,12.1270578 16.8358639,12.8717572 16.7920366,13.6489836 C16.8901472,14.6954563 16.4288,15.7152944 15.5821802,16.3234507 C14.9890131,16.6627078 14.3277106,16.8615846 13.647846,16.9051727 L13.647846,18.2780367 L12.9822455,18.2780367 L12.9822455,16.9051727 C11.6266319,16.8159753 10.7063752,16.3297527 10.2214753,15.4465047 C9.92892562,14.8474436 9.79202044,14.1827373 9.82369457,13.5151876 L11.0601175,13.5151876 C11.0610169,14.0030429 11.1643,14.4851326 11.3631202,14.9294993 C11.7102383,15.4948569 12.3242141,15.8349925 12.9815275,15.8260783 L12.9815275,15.8260783 Z M13.64641,15.8602545 C14.3155822,15.8947554 14.9495857,15.5550159 15.297846,14.9753099 C15.4614593,14.6743415 15.5436919,14.3349543 15.5362272,13.9914725 C15.5638251,13.460508 15.3196736,12.9525294 14.8900131,12.6469674 C14.5058226,12.4094285 14.0856864,12.2374667 13.64641,12.1379607 L13.64641,15.8609817 L13.64641,15.8609817 L13.64641,15.8602545 Z M12.9815275,10.680747 L12.9815275,7.35402413 C12.4803736,7.32642139 11.9949543,7.53595427 11.6675588,7.92120311 C11.4195184,8.23734694 11.2819079,8.62781539 11.2762403,9.03156503 C11.2548207,9.44979726 11.425509,9.85456959 11.7386423,10.1281111 C12.0992864,10.4172151 12.5272916,10.6075232 12.9815275,10.680747 L12.9815275,10.680747 Z M14.4893604,2 L12.1278068,2 L12.1278068,2.72715254 L14.4872063,2.72715254 L14.4872063,2 L14.4893604,2 Z M14.4893604,20.905966 L12.1278068,20.905966 L12.1278068,21.6331185 L14.4872063,21.6331185 L14.4872063,20.905966 L14.4893604,20.905966 Z" id="icon" fill="#3A76B3" fill-rule="nonzero"></path>
            </g>
        </g>
    </g>
</svg>