<?xml version="1.0" encoding="UTF-8"?>
<svg width="18px" height="18px" viewBox="0 0 18 18" version="1.1" xmlns="http://www.w3.org/2000/svg" xmlns:xlink="http://www.w3.org/1999/xlink">
    <!-- Generator: Sketch 58 (84663) - https://sketch.com -->
    <title>ic_navCategories</title>
    <desc>Created with Sketch.</desc>
    <g id="Element-Sheet" stroke="none" stroke-width="1" fill="none" fill-rule="evenodd">
        <g transform="translate(-693.000000, -402.000000)" id="ic_navCategories">
            <g transform="translate(690.000000, 399.000000)">
                <rect id="bounds" x="0" y="0" width="24" height="24"></rect>
                <path d="M8.18914286,4.18285714 C8.18702396,3.53021212 7.65828894,3.0017643 7.00564286,3 L4.1835,3 C3.53085392,3.0017643 3.0021189,3.53021212 3,4.18285714 L3,7.0005 C3.00176603,7.65339609 3.53060391,8.18223397 4.1835,8.184 L7.00178571,8.184 C7.6546818,8.18223397 8.18351969,7.65339609 8.18528571,7.0005 L8.18528571,4.18285714 L8.18914286,4.18285714 L8.18914286,4.18285714 Z M7.28271429,7.00435714 C7.28166315,7.15694195 7.15822767,7.28037743 7.00564286,7.28142857 L4.1835,7.28142857 C4.03091519,7.28037743 3.90747971,7.15694195 3.90642857,7.00435714 L3.90642857,4.18285714 C3.907824,4.03041656 4.03105942,3.90718114 4.1835,3.90578571 L7.00178571,3.90578571 C7.15422629,3.90718114 7.27746172,4.03041656 7.27885714,4.18285714 L7.27885714,7.00435714 L7.28271429,7.00435714 L7.28271429,7.00435714 Z M8.18914286,10.5908571 C8.18702396,9.93821212 7.65828894,9.4097643 7.00564286,9.408 L4.1835,9.408 C3.53085392,9.4097643 3.0021189,9.93821212 3,10.5908571 L3,13.4085 C3.00176603,14.0613961 3.53060391,14.590234 4.1835,14.592 L7.00178571,14.592 C7.6546818,14.590234 8.18351969,14.0613961 8.18528571,13.4085 L8.18528571,10.5908571 L8.18914286,10.5908571 L8.18914286,10.5908571 Z M7.28271429,13.4085 C7.28166764,13.5611916 7.15833159,13.6848138 7.00564286,13.6862143 L4.1835,13.6862143 C4.03081127,13.6848138 3.90747522,13.5611916 3.90642857,13.4085 L3.90642857,10.5908571 C3.90747971,10.4382723 4.03091519,10.3148369 4.1835,10.3137857 L7.00178571,10.3137857 C7.15437052,10.3148369 7.277806,10.4382723 7.27885714,10.5908571 L7.27885714,13.4085 L7.28271429,13.4085 L7.28271429,13.4085 Z M7.00564286,15.8121429 L4.1835,15.8121429 C3.53085392,15.8139072 3.0021189,16.342355 3,16.995 L3,19.8126429 C3.00176603,20.4655389 3.53060391,20.9943768 4.1835,20.9961429 L7.00178571,20.9961429 C7.6546818,20.9943768 8.18351969,20.4655389 8.18528571,19.8126429 L8.18528571,16.995 C8.18579757,16.6816869 8.06178114,16.3810123 7.84053666,16.159165 C7.61929218,15.9373177 7.31895618,15.8124836 7.00564286,15.8121429 L7.00564286,15.8121429 Z M7.28271429,19.8165 C7.28166315,19.9690848 7.15822767,20.0925203 7.00564286,20.0935714 L4.1835,20.0935714 C4.03091519,20.0925203 3.90747971,19.9690848 3.90642857,19.8165 L3.90642857,16.9988571 C3.90747971,16.8462723 4.03091519,16.7228369 4.1835,16.7217857 L7.00178571,16.7217857 C7.15437052,16.7228369 7.277806,16.8462723 7.27885714,16.9988571 L7.27885714,19.8165 L7.28271429,19.8165 L7.28271429,19.8165 Z M9.40928571,13.4085 C9.41105174,14.0613961 9.93988962,14.590234 10.5927857,14.592 L13.4110714,14.592 C14.0639675,14.590234 14.5928054,14.0613961 14.5945714,13.4085 L14.5945714,10.5908571 C14.5924525,9.93821212 14.0637175,9.4097643 13.4110714,9.408 L10.5927857,9.408 C9.94013963,9.4097643 9.41140461,9.93821212 9.40928571,10.5908571 L9.40928571,13.4085 L9.40928571,13.4085 Z M10.3157143,10.5908571 C10.3167654,10.4382723 10.4402009,10.3148369 10.5927857,10.3137857 L13.4110714,10.3137857 C13.5636562,10.3148369 13.6870917,10.4382723 13.6881429,10.5908571 L13.6881429,13.4085 C13.6870962,13.5611916 13.5637602,13.6848138 13.4110714,13.6862143 L10.5927857,13.6862143 C10.440097,13.6848138 10.3167609,13.5611916 10.3157143,13.4085 L10.3157143,10.5908571 L10.3157143,10.5908571 Z M9.40928571,19.8165 C9.41140276,20.4692501 9.94003563,20.997883 10.5927857,21 L13.4110714,21 C14.0638215,20.997883 14.5924544,20.4692501 14.5945714,19.8165 L14.5945714,16.9988571 C14.5924525,16.3462121 14.0637175,15.8177643 13.4110714,15.816 L10.5927857,15.816 C9.94013963,15.8177643 9.41140461,16.3462121 9.40928571,16.9988571 L9.40928571,19.8165 L9.40928571,19.8165 Z M10.3157143,16.995 C10.3171097,16.8425594 10.4403451,16.719324 10.5927857,16.7179286 L13.4110714,16.7179286 C13.563512,16.719324 13.6867474,16.8425594 13.6881429,16.995 L13.6881429,19.8126429 C13.6870962,19.9653344 13.5637602,20.0889566 13.4110714,20.0903571 L10.5927857,20.0903571 C10.440097,20.0889566 10.3167609,19.9653344 10.3157143,19.8126429 L10.3157143,16.995 L10.3157143,16.995 L10.3157143,16.995 Z M15.8153571,13.4085 C15.8171232,14.0613961 16.3459611,14.590234 16.9988571,14.592 L19.8171429,14.592 C20.4697879,14.5898811 20.9982357,14.0611461 21,13.4085 L21,10.5908571 C20.9978811,9.93821212 20.4691461,9.4097643 19.8165,9.408 L16.9982143,9.408 C16.3455682,9.4097643 15.8168332,9.93821212 15.8147143,10.5908571 L15.8147143,13.4085 L15.8147143,13.4085 L15.8153571,13.4085 Z M16.7217857,10.5908571 C16.7228369,10.4382723 16.8462723,10.3148369 16.9988571,10.3137857 L19.8171429,10.3137857 C19.9699787,10.3144864 20.0938023,10.4380234 20.0948571,10.5908571 L20.0948571,13.4085 C20.093806,13.5614398 19.9700827,13.6851631 19.8171429,13.6862143 L16.9982143,13.6862143 C16.8455256,13.6848138 16.7221895,13.5611916 16.7211429,13.4085 L16.7211429,10.5908571 L16.7211429,10.5908571 L16.7217857,10.5908571 Z M15.8153571,19.8165 C15.8174721,20.4690003 16.3457153,20.9975305 16.9982143,21 L19.8165,21 C20.4692501,20.997883 20.997883,20.4692501 21,19.8165 L21,16.9988571 C20.9978811,16.3462121 20.4691461,15.8177643 19.8165,15.816 L16.9982143,15.816 C16.3455682,15.8177643 15.8168332,16.3462121 15.8147143,16.9988571 L15.8147143,19.8165 L15.8147143,19.8165 L15.8153571,19.8165 Z M16.7217857,16.995 C16.7231811,16.8425594 16.8464166,16.719324 16.9988571,16.7179286 L19.8171429,16.7179286 C19.9698344,16.7189752 20.0934566,16.8423113 20.0948571,16.995 L20.0948571,19.8126429 C20.093806,19.9655827 19.9700827,20.089306 19.8171429,20.0903571 L16.9982143,20.0903571 C16.8455256,20.0889566 16.7221895,19.9653344 16.7211429,19.8126429 L16.7211429,16.995 L16.7211429,16.995 L16.7217857,16.995 Z M9.40928571,4.18285714 L9.40928571,7.0005 C9.41105174,7.65339609 9.93988962,8.18223397 10.5927857,8.184 L13.4110714,8.184 C14.0639675,8.18223397 14.5928054,7.65339609 14.5945714,7.0005 L14.5945714,4.18285714 C14.5924525,3.53021212 14.0637175,3.0017643 13.4110714,3 L10.5927857,3 C9.93955446,3.00035425 9.40999488,3.52962617 9.40928571,4.18285714 L9.40928571,4.18285714 Z M10.3157143,4.18285714 C10.3171097,4.03041656 10.4403451,3.90718114 10.5927857,3.90578571 L13.4110714,3.90578571 C13.563512,3.90718114 13.6867474,4.03041656 13.6881429,4.18285714 L13.6881429,7.0005 C13.6870962,7.15319157 13.5637602,7.27681378 13.4110714,7.27821429 L10.5927857,7.27821429 C10.440097,7.27681378 10.3167609,7.15319157 10.3157143,7.0005 L10.3157143,4.18285714 L10.3157143,4.18285714 L10.3157143,4.18285714 Z M17.0014286,8.18785714 L19.8197143,8.18785714 C20.4712088,8.18398043 20.9978951,7.65585976 21,7.00435714 L21,4.18285714 C20.9978811,3.53021212 20.4691461,3.0017643 19.8165,3 L16.9982143,3 C16.3455682,3.0017643 15.8168332,3.53021212 15.8147143,4.18285714 L15.8147143,7.0005 C15.8150635,7.65461007 16.3441088,8.18537955 16.9982143,8.18785714 L17.0014286,8.18785714 Z M16.7243571,4.18285714 C16.7257526,4.03041656 16.848988,3.90718114 17.0014286,3.90578571 L19.8197143,3.90578571 C19.9724059,3.90683236 20.0960281,4.03016841 20.0974286,4.18285714 L20.0974286,7.0005 C20.0963774,7.15343984 19.9726541,7.27716312 19.8197143,7.27821429 L16.9982143,7.27821429 C16.8455256,7.27681378 16.7221895,7.15319157 16.7211429,7.0005 L16.7211429,4.18285714 L16.7211429,4.18285714 L16.7243571,4.18285714 Z" id="Shape" fill="#FFFFFF" fill-rule="nonzero"></path>
            </g>
        </g>
    </g>
</svg>