<?xml version="1.0" encoding="UTF-8"?>
<svg width="22px" height="22px" viewBox="0 0 22 22" version="1.1" xmlns="http://www.w3.org/2000/svg" xmlns:xlink="http://www.w3.org/1999/xlink">
    <!-- Generator: Sketch 58 (84663) - https://sketch.com -->
    <title>ic_tileViewInactive_</title>
    <desc>Created with Sketch.</desc>
    <g id="Element-Sheet" stroke="none" stroke-width="1" fill="none" fill-rule="evenodd">
        <g transform="translate(-1146.000000, -660.000000)" id="ic_tileViewInactive_">
            <g transform="translate(1142.000000, 656.000000)">
                <g>
                    <rect id="bounds" x="0" y="0" width="30" height="30"></rect>
                    <g id="9_dots" transform="translate(4.000000, 4.000000)" stroke="#BDBDC0" stroke-width="1.2">
                        <path d="M2.46059808,4.32119616 C3.48817803,4.32119616 4.32119616,3.48817803 4.32119616,2.46059808 C4.32119616,1.43301814 3.48817803,0.6 2.46059808,0.6 C1.43301814,0.6 0.6,1.43301814 0.6,2.46059808 C0.6,3.48817803 1.43301814,4.32119616 2.46059808,4.32119616 Z M2.46059808,12.5855387 C3.48817803,12.5855387 4.32119616,11.7525205 4.32119616,10.7249406 C4.32119616,9.69736063 3.48817803,8.86434249 2.46059808,8.86434249 C1.43301814,8.86434249 0.6,9.69736063 0.6,10.7249406 C0.6,11.7525205 1.43301814,12.5855387 2.46059808,12.5855387 Z M2.46059808,17.128685 C1.43301814,17.128685 0.6,17.9617031 0.6,18.9892831 C0.6,20.016863 1.43301814,20.8498811 2.46059808,20.8498811 C3.48817803,20.8498811 4.32119616,20.016863 4.32119616,18.9892831 C4.32119616,17.9617031 3.48817803,17.128685 2.46059808,17.128685 Z M10.7249406,17.128685 C9.69736063,17.128685 8.86434249,17.9617031 8.86434249,18.9892831 C8.86434249,20.016863 9.69736063,20.8498811 10.7249406,20.8498811 C11.7525205,20.8498811 12.5855387,20.016863 12.5855387,18.9892831 C12.5855387,17.9617031 11.7525205,17.128685 10.7249406,17.128685 Z M10.7249406,8.86434249 C9.69736063,8.86434249 8.86434249,9.69736063 8.86434249,10.7249406 C8.86434249,11.7525205 9.69736063,12.5855387 10.7249406,12.5855387 C11.7525205,12.5855387 12.5855387,11.7525205 12.5855387,10.7249406 C12.5855387,9.69736063 11.7525205,8.86434249 10.7249406,8.86434249 Z M10.7249406,0.6 C9.69736063,0.6 8.86434249,1.43301814 8.86434249,2.46059808 C8.86434249,3.48817803 9.69736063,4.32119616 10.7249406,4.32119616 C11.7525205,4.32119616 12.5855387,3.48817803 12.5855387,2.46059808 C12.5855387,1.43301814 11.7525205,0.6 10.7249406,0.6 Z" id="shape"></path>
                        <circle id="shape-copy" cx="18.9892831" cy="2.46059808" r="1.86059808"></circle>
                        <circle id="shape-copy-2" cx="18.9892831" cy="10.7249406" r="1.86059808"></circle>
                        <circle id="shape-copy-3" cx="18.9892831" cy="18.9892831" r="1.86059808"></circle>
                    </g>
                </g>
            </g>
        </g>
    </g>
</svg>