<?xml version="1.0" encoding="UTF-8"?>
<svg width="22px" height="22px" viewBox="0 0 22 22" version="1.1" xmlns="http://www.w3.org/2000/svg" xmlns:xlink="http://www.w3.org/1999/xlink">
    <!-- Generator: Sketch 58 (84663) - https://sketch.com -->
    <title>ic_tileViewActiveBlue</title>
    <desc>Created with Sketch.</desc>
    <g id="Element-Sheet" stroke="none" stroke-width="1" fill="none" fill-rule="evenodd">
        <g transform="translate(-773.000000, -256.000000)" id="ic_tileViewActiveBlue">
            <g transform="translate(769.000000, 252.000000)">
                <g>
                    <rect id="bounds" x="0" y="0" width="30" height="30"></rect>
                    <g id="group" transform="translate(4.200000, 4.200000)" stroke="#3A76B3" stroke-width="1.2">
                        <path d="M4.2,13.8 C2.2117749,13.8 0.6,15.4117749 0.6,17.4 C0.6,19.3882251 2.2117749,21 4.2,21 C6.1882251,21 7.8,19.3882251 7.8,17.4 C7.8,15.4117749 6.1882251,13.8 4.2,13.8 Z M17.4,13.8 C15.4117749,13.8 13.8,15.4117749 13.8,17.4 C13.8,19.3882251 15.4117749,21 17.4,21 C19.3882251,21 21,19.3882251 21,17.4 C21,15.4117749 19.3882251,13.8 17.4,13.8 Z M4.2,0.6 C2.2117749,0.6 0.6,2.2117749 0.6,4.2 C0.6,6.1882251 2.2117749,7.8 4.2,7.8 C6.1882251,7.8 7.8,6.1882251 7.8,4.2 C7.8,2.2117749 6.1882251,0.6 4.2,0.6 Z M17.4,0.6 C15.4117749,0.6 13.8,2.2117749 13.8,4.2 C13.8,6.1882251 15.4117749,7.8 17.4,7.8 C19.3882251,7.8 21,6.1882251 21,4.2 C21,2.2117749 19.3882251,0.6 17.4,0.6 Z" id="shape"></path>
                    </g>
                </g>
            </g>
        </g>
    </g>
</svg>