<?xml version="1.0" encoding="UTF-8"?>
<svg width="21px" height="21px" viewBox="0 0 21 21" version="1.1" xmlns="http://www.w3.org/2000/svg" xmlns:xlink="http://www.w3.org/1999/xlink">
    <!-- Generator: Sketch 58 (84663) - https://sketch.com -->
    <title>ic_user</title>
    <desc>Created with Sketch.</desc>
    <g id="Element-Sheet" stroke="none" stroke-width="1" fill="none" fill-rule="evenodd">
        <g transform="translate(-1309.000000, -334.000000)" id="ic_user">
            <g transform="translate(1307.000000, 332.000000)">
                <rect id="bounds" x="0" y="0" width="25" height="25"></rect>
                <g id="icon" transform="translate(2.500000, 2.500000)" fill="#FFFFFF">
                    <path d="M11.5391336,11.5720786 C11.5391336,10.8471059 12.0991081,11.0840917 12.3456498,9.75518748 C12.4475792,9.20476884 12.9425737,9.74690572 13.0374954,8.48871496 C13.0374954,7.98734984 12.7673826,7.86248635 12.7673826,7.86248635 C12.7673826,7.86248635 12.9049873,7.12095013 12.9585002,6.54950855 C13.0247543,5.83855115 12.5469603,4 9.99936294,4 C7.45176556,4 6.97397161,5.83855115 7.04086276,6.54950855 C7.09501274,7.12095013 7.23198034,7.86248635 7.23198034,7.86248635 C7.23198034,7.86248635 6.96186749,7.98734984 6.96186749,8.48871496 C7.05615217,9.74690572 7.55114671,9.20476884 7.65371314,9.75518748 C7.90025482,11.0840917 8.46022934,10.8471059 8.46022934,11.5720786 C8.46022934,12.7805788 7.87349836,13.3450127 6.03813251,14.0139243 C4.19703313,14.6853841 3,15.369585 3,15.8359119 L3,16.4037131 C3,16.4037131 5.26449986,18.3686827 6.49587076,18.8964611 C7.72724166,19.4242395 9.99936294,19.4037131 9.99936294,19.4037131 C9.99936294,19.4037131 12.869941,19.2790362 14.0818224,18.7597057 C15.2937038,18.2403752 17,16.4037131 17,16.4037131 L17,15.8359119 C17,15.369585 15.8029669,14.6853841 13.9618675,14.0139243 C12.1258646,13.3450127 11.5391336,12.7805788 11.5391336,11.5720786 Z" id="Fill-1"></path>
                    <path d="M10,0 C15.5228475,0 20,4.4771525 20,10 C20,15.5228475 15.5228475,20 10,20 C4.4771525,20 0,15.5228475 0,10 C0,4.4771525 4.4771525,0 10,0 Z M10,1 C5.02943725,1 1,5.02943725 1,10 C1,14.9705627 5.02943725,19 10,19 C14.9705627,19 19,14.9705627 19,10 C19,5.02943725 14.9705627,1 10,1 Z" id="Combined-Shape"></path>
                </g>
            </g>
        </g>
    </g>
</svg>